<svg xmlns="http://www.w3.org/2000/svg" xmlns:xlink="http://www.w3.org/1999/xlink" width="500" zoomAndPan="magnify" viewBox="0 0 375 374.999991" height="500" preserveAspectRatio="xMidYMid meet" version="1.0"><defs><clipPath id="60625ce916"><path d="M 34.636719 34.636719 L 339 34.636719 L 339 339 L 34.636719 339 Z M 34.636719 34.636719 " clip-rule="nonzero"/></clipPath></defs><g clip-path="url(#60625ce916)"><path fill="#baaf9c" d="M 231.316406 258.398438 L 306.265625 333.320312 C 313.6875 340.738281 325.738281 340.738281 333.160156 333.316406 C 340.578125 325.894531 340.574219 313.84375 333.152344 306.421875 L 258.253906 231.550781 C 273.324219 211.058594 282.230469 185.75 282.230469 158.375 C 282.230469 90.082031 226.785156 34.636719 158.488281 34.636719 C 90.195312 34.636719 34.75 90.082031 34.75 158.375 C 34.75 226.667969 90.195312 282.113281 158.488281 282.113281 C 185.707031 282.113281 210.878906 273.3125 231.316406 258.398438 Z M 158.488281 72.667969 C 205.792969 72.667969 244.199219 111.070312 244.199219 158.375 C 244.199219 205.679688 205.792969 244.085938 158.488281 244.085938 C 111.1875 244.085938 72.78125 205.679688 72.78125 158.375 C 72.78125 111.070312 111.1875 72.667969 158.488281 72.667969 Z M 158.488281 72.667969 " fill-opacity="1" fill-rule="evenodd"/></g></svg>